<svg width="10" height="11" viewBox="0 0 10 11" fill="none" xmlns="http://www.w3.org/2000/svg">
<g clip-path="url(#clip0_37_126)">
<path fill-rule="evenodd" clip-rule="evenodd" d="M1 5.49999C1 3.29085 2.79086 1.49998 5 1.49998C6.01445 1.49998 6.9407 1.87762 7.64585 2.49998H7V3.49998H8.46485C8.46795 3.50532 8.47105 3.51066 8.4741 3.516L8.50215 3.49998H9.5V2.49998V0.999985H8.5V1.92928C8.05025 1.48847 7.51835 1.13364 6.92975 0.887393C5.91245 0.461817 4.78307 0.384451 3.71728 0.667338C2.6515 0.950225 1.70913 1.57749 1.03682 2.45152C0.570495 3.05778 0.252248 3.75915 0.101015 4.5C0.034216 4.82724 9.53675e-07 5.16217 0 5.49999H1ZM9 5.49999C9 6.46649 8.6572 7.35294 8.0866 8.04434C8.02545 8.11844 7.9617 8.19029 7.89545 8.25974C7.88445 8.27134 7.87335 8.28284 7.86215 8.29429L7.85115 8.30554C7.83715 8.31969 7.8231 8.33379 7.80895 8.34779L7.8072 8.34949C7.79475 8.36174 7.7822 8.37394 7.7696 8.38604L7.75975 8.39549C7.04485 9.07704 6.0779 9.49659 5.01295 9.49999H5.0056H5.00555H5H4.99425C3.98205 9.49854 3.05798 9.12119 2.35418 8.49999H3V7.49999H1.5H0.5V8.49999V9.99999H1.5V9.07069C1.54308 9.11294 1.58691 9.15439 1.63145 9.19499C2.15591 9.67309 2.77912 10.0368 3.46169 10.2575C4.4656 10.5821 5.54645 10.5808 6.5496 10.2538C7.55275 9.92679 8.4267 9.29089 9.0465 8.43699C9.46785 7.85644 9.75705 7.19534 9.899 6.49999C9.9658 6.17264 10 5.83769 10 5.49999H9Z" fill="#FFFFFF"/>
</g>
<defs>
<clipPath id="clip0_37_126">
<rect width="10" height="10" fill="white" transform="translate(0 0.5)"/>
</clipPath>
</defs>
</svg>
